<?xml version="1.0" encoding="utf-8"?>
<!-- Generator: Adobe Illustrator 16.0.0, SVG Export Plug-In . SVG Version: 6.00 Build 0)  -->
<!DOCTYPE svg PUBLIC "-//W3C//DTD SVG 1.1//EN" "http://www.w3.org/Graphics/SVG/1.1/DTD/svg11.dtd">
<svg version="1.1" id="Layer_1" xmlns="http://www.w3.org/2000/svg" xmlns:xlink="http://www.w3.org/1999/xlink" x="0px" y="0px"
	 width="3456px" height="3456px" viewBox="0 0 3456 3456" enable-background="new 0 0 3456 3456" xml:space="preserve">
<title  id="simpleicons-github-icon">GitHub icon</title>
<path d="M3451.027,3111.395V354.549c0-189.531-155.073-344.605-344.605-344.605H349.578C160.046,9.943,4.973,165.018,4.973,354.549
	v2756.846C4.973,3300.926,160.046,3456,349.578,3456h686.304c53.791-41.371,102.536-60.123,145.638-45.792
	c86.4,16.272,118.08-37.152,118.08-83.088c0-41.04-1.439-149.761-2.16-293.761c-480.672,104.256-582.048-231.84-582.048-231.84
	c-78.624-199.439-192.239-252.72-192.239-252.72c-156.528-107.136,12.096-104.976,12.096-104.976
	c173.52,12.096,264.672,177.984,264.672,177.984c154.08,264.239,404.496,187.92,503.28,143.711
	c15.552-111.743,60.048-187.92,109.44-231.119c-383.761-43.2-787.104-191.809-787.104-853.92
	c0-188.641,66.96-342.721,177.84-463.681c-19.44-43.632-77.76-219.312,15.12-457.344c0,0,144.72-46.368,475.2,177.12
	c138.239-38.448,285.12-57.456,432-58.32c146.88,0.864,293.76,19.872,432,58.32c328.319-223.488,473.04-177.12,473.04-177.12
	c92.88,238.032,34.56,413.712,17.28,457.344c110.159,120.96,177.12,275.04,177.12,463.681c0,663.84-403.921,810-788.4,852.479
	c60.479,51.84,116.64,157.824,116.64,319.68c0,231.265-2.16,417.024-2.16,473.185c0,45.359,30.24,99.359,118.8,82.08
	c48.517-15.906,105.105,3.98,168.113,48.096h668.293C3295.954,3456,3451.027,3300.926,3451.027,3111.395z"/>
</svg>
