<svg height='200' width='200'  fill="#000000" xmlns="http://www.w3.org/2000/svg" xmlns:xlink="http://www.w3.org/1999/xlink" version="1.1" x="0px" y="0px" viewBox="0 0 90 90" enable-background="new 0 0 90 90" xml:space="preserve"><path d="M66.755,5h-43.51c-4.651,0-8.421,2.917-8.421,6.517v66.967c0,3.599,3.77,6.517,8.421,6.517h43.51  c4.65,0,8.422-2.918,8.422-6.517V11.517C75.177,7.917,71.405,5,66.755,5z M21.148,26.804H56.62c0.462,0,0.835,0.425,0.835,0.95  c0,0.525-0.373,0.95-0.835,0.95H21.148c-0.461,0-0.835-0.425-0.835-0.95C20.313,27.229,20.687,26.804,21.148,26.804z M20.661,20.852  c0-0.524,0.376-0.95,0.842-0.95h35.771c0.464,0,0.842,0.426,0.842,0.95c0,0.525-0.378,0.951-0.842,0.951H21.503  C21.038,21.803,20.661,21.377,20.661,20.852z M21.148,39.52H56.62c0.462,0,0.835,0.425,0.835,0.951c0,0.525-0.373,0.95-0.835,0.95  H21.148c-0.461,0-0.835-0.425-0.835-0.95C20.313,39.945,20.687,39.52,21.148,39.52z M45,46.285c0,0.525-0.245,0.95-0.546,0.95  H21.208c-0.302,0-0.546-0.425-0.546-0.95s0.245-0.95,0.546-0.95h23.246C44.755,45.335,45,45.76,45,46.285z M21.164,52.236h36.102  c0.47,0,0.851,0.426,0.851,0.95c0,0.525-0.381,0.95-0.851,0.95H21.164c-0.47,0-0.851-0.425-0.851-0.95  C20.313,52.662,20.694,52.236,21.164,52.236z M58.116,59.002c0,0.524-0.378,0.95-0.842,0.95H21.503c-0.466,0-0.842-0.426-0.842-0.95  s0.376-0.95,0.842-0.95h35.771C57.738,58.052,58.116,58.478,58.116,59.002z M44.105,79.569H20.861c-0.303,0-0.548-0.425-0.548-0.95  s0.245-0.951,0.548-0.951h23.244c0.303,0,0.547,0.426,0.547,0.951S44.408,79.569,44.105,79.569z M57.274,72.668H21.503  c-0.466,0-0.842-0.425-0.842-0.95s0.376-0.95,0.842-0.95h35.771c0.464,0,0.842,0.425,0.842,0.95S57.738,72.668,57.274,72.668z   M67.897,66.853H21.408c-0.605,0-1.095-0.425-1.095-0.949c0-0.525,0.49-0.951,1.095-0.951h46.489c0.604,0,1.095,0.426,1.095,0.951  C68.992,66.428,68.502,66.853,67.897,66.853z M67.904,34.52H21.747c-0.6,0-1.086-0.426-1.086-0.951s0.486-0.95,1.086-0.95h46.157  c0.601,0,1.088,0.425,1.088,0.95S68.505,34.52,67.904,34.52z M67.897,15.988H21.408c-0.605,0-1.095-0.425-1.095-0.951  c0-0.525,0.49-0.95,1.095-0.95h46.489c0.604,0,1.095,0.425,1.095,0.95C68.992,15.562,68.502,15.988,67.897,15.988z"></path></svg>