<?xml version="1.0" encoding="utf-8"?>
<!-- Generator: Adobe Illustrator 16.0.0, SVG Export Plug-In . SVG Version: 6.00 Build 0)  -->
<!DOCTYPE svg PUBLIC "-//W3C//DTD SVG 1.1//EN" "http://www.w3.org/Graphics/SVG/1.1/DTD/svg11.dtd">
<svg version="1.1" id="Layer_1" xmlns="http://www.w3.org/2000/svg" xmlns:xlink="http://www.w3.org/1999/xlink" x="0px" y="0px"
	 width="500px" height="500px" viewBox="0 0 500 500" enable-background="new 0 0 500 500" xml:space="preserve">
<path d="M449.557,0H49.951C22.478,0,0,22.478,0,49.951v399.606c0,27.474,22.478,49.951,49.951,49.951h399.606
	c27.473,0,49.951-22.478,49.951-49.951V49.951C499.508,22.478,477.029,0,449.557,0z M391.737,180.567
	c0.138,3.074,0.205,6.162,0.205,9.264c0,94.729-72.106,203.965-203.97,203.971c-40.485,0-78.159-11.867-109.884-32.203
	c5.609,0.661,11.319,0.991,17.1,0.991c33.589,0,64.5-11.457,89.039-30.687c-31.382-0.581-57.842-21.309-66.973-49.794
	c4.369,0.839,8.864,1.297,13.473,1.297c6.543,0,12.881-0.882,18.906-2.525c-32.803-6.567-57.514-35.558-57.514-70.271
	c0-0.324,0-0.614,0.01-0.916c9.66,5.371,20.707,8.603,32.47,8.965c-19.25-12.843-31.902-34.8-31.902-59.671
	c0-13.135,3.55-25.44,9.708-36.035c35.352,43.378,88.186,71.906,147.767,74.904c-1.229-5.252-1.863-10.723-1.863-16.347
	c0-39.575,32.106-71.682,71.697-71.682c20.62,0,39.244,8.717,52.328,22.652c16.332-3.221,31.668-9.188,45.522-17.4
	c-5.362,16.733-16.724,30.773-31.526,39.651c14.502-1.734,28.322-5.58,41.166-11.29C417.902,157.82,405.734,170.449,391.737,180.567
	z"/>
</svg>
